<svg width="116" height="34" viewBox="0 0 116 34" fill="none" xmlns="http://www.w3.org/2000/svg">
<path d="M0.695438 34V0.167514H9.86481C12.3253 0.167514 14.1131 0.769834 15.228 1.97448C16.3558 3.1663 16.9196 5.13986 16.9196 7.89516V9.37533C16.9196 10.9644 16.6313 12.2524 16.0546 13.2391C15.4907 14.2259 14.6257 14.8731 13.4595 15.1807C14.9845 15.5651 16.0033 16.4686 16.516 17.8911C17.0414 19.3008 17.3041 21.0245 17.3041 23.0621C17.3041 25.2535 17.0991 27.1694 16.689 28.8098C16.2789 30.4501 15.5356 31.7253 14.4591 32.6351C13.3826 33.545 11.8512 34 9.86481 34H0.695438ZM7.30815 12.9124H8.6922C9.32015 12.9124 9.72384 12.6689 9.90325 12.1819C10.0827 11.6949 10.1724 11.1118 10.1724 10.4326V7.03012C10.1724 5.94082 9.6918 5.39617 8.73065 5.39617H7.30815V12.9124ZM7.98095 28.0409C9.73665 28.0409 10.6145 27.2079 10.6145 25.5419V21.3128C10.6145 20.3517 10.4671 19.5956 10.1724 19.0445C9.89044 18.4806 9.35219 18.1987 8.55764 18.1987H7.30815V28.0024C7.59008 28.028 7.81435 28.0409 7.98095 28.0409ZM19.534 34V0.167514H33.067V6.70333H26.4158V13.2968H32.7978V19.6596H26.4158V27.4065H33.5091V34H19.534ZM38.4109 34L34.7778 0.167514H41.3905L43.2551 21.5243L45.1582 0.167514H51.4634L53.2703 21.5243L55.0773 0.167514H61.7669L58.0761 34H49.964L48.2723 17.7181L46.6576 34H38.4109ZM63.7853 34V0.167514H77.3183V6.70333H70.6671V13.2968H77.0492V19.6596H70.6671V27.4065H77.7604V34H63.7853ZM79.0868 34L82.3547 0.167514H93.8308L97.0411 34H90.6398L90.1592 28.5406H86.084L85.6611 34H79.0868ZM86.5645 23.139H89.6402L88.1601 5.93441H87.8525L86.5645 23.139ZM99.1172 34V0.167514H109.498C111.228 0.167514 112.535 0.564789 113.419 1.35934C114.303 2.14107 114.893 3.24319 115.188 4.66569C115.495 6.07538 115.649 7.73496 115.649 9.64445C115.649 11.4899 115.412 12.9636 114.938 14.0657C114.476 15.1679 113.598 15.9304 112.304 16.3533C113.368 16.5711 114.111 17.103 114.534 17.9488C114.97 18.7818 115.188 19.8647 115.188 21.1975V34H108.517V20.7553C108.517 19.7686 108.312 19.1598 107.902 18.9292C107.505 18.6857 106.858 18.5639 105.961 18.5639V34H99.1172ZM105.999 12.7009H107.633C108.568 12.7009 109.036 11.6821 109.036 9.64445C109.036 8.32447 108.934 7.45944 108.729 7.04934C108.524 6.63925 108.139 6.43421 107.575 6.43421H105.999V12.7009Z" fill="black"/>
</svg>
